<svg width="23" height="20" viewBox="0 0 23 20" fill="none" xmlns="http://www.w3.org/2000/svg">
<rect width="22.5503" height="19.0268" rx="5" fill="#107163"/>
<g clip-path="url(#clip0_53_205)">
<path d="M11.6946 4.20555C13.4833 4.20555 13.6952 4.2134 14.3986 4.24478C15.0524 4.27355 15.4054 4.38338 15.6408 4.47491C15.952 4.5952 16.1769 4.74165 16.4096 4.97439C16.645 5.20975 16.7888 5.43203 16.9091 5.74323C17.0006 5.97858 17.1105 6.33424 17.1392 6.98539C17.1706 7.69147 17.1785 7.90329 17.1785 9.68939C17.1785 11.4781 17.1706 11.6899 17.1392 12.3934C17.1105 13.0472 17.0006 13.4002 16.9091 13.6356C16.7888 13.9468 16.6424 14.1717 16.4096 14.4044C16.1743 14.6398 15.952 14.7836 15.6408 14.9039C15.4054 14.9954 15.0498 15.1052 14.3986 15.134C13.6925 15.1654 13.4807 15.1732 11.6946 15.1732C9.9059 15.1732 9.69408 15.1654 8.99062 15.134C8.33685 15.1052 7.98381 14.9954 7.74846 14.9039C7.43726 14.7836 7.21236 14.6371 6.97962 14.4044C6.74426 14.169 6.60043 13.9468 6.48014 13.6356C6.38861 13.4002 6.27878 13.0445 6.25001 12.3934C6.21863 11.6873 6.21079 11.4755 6.21079 9.68939C6.21079 7.90067 6.21863 7.68885 6.25001 6.98539C6.27878 6.33162 6.38861 5.97858 6.48014 5.74323C6.60043 5.43203 6.74688 5.20713 6.97962 4.97439C7.21498 4.73903 7.43726 4.5952 7.74846 4.47491C7.98381 4.38338 8.33947 4.27355 8.99062 4.24478C9.69408 4.2134 9.9059 4.20555 11.6946 4.20555ZM11.6946 3C9.87714 3 9.64962 3.00785 8.93571 3.03923C8.2244 3.07061 7.73538 3.18567 7.31174 3.35042C6.86979 3.52302 6.49583 3.75053 6.12449 4.12449C5.75053 4.49583 5.52302 4.86979 5.35042 5.30912C5.18567 5.73538 5.07061 6.22179 5.03923 6.93309C5.00785 7.64962 5 7.87714 5 9.69462C5 11.5121 5.00785 11.7396 5.03923 12.4535C5.07061 13.1648 5.18567 13.6539 5.35042 14.0775C5.52302 14.5195 5.75053 14.8934 6.12449 15.2648C6.49583 15.6361 6.86979 15.8662 7.30912 16.0362C7.73538 16.201 8.22179 16.316 8.93309 16.3474C9.64701 16.3788 9.87452 16.3866 11.692 16.3866C13.5095 16.3866 13.737 16.3788 14.4509 16.3474C15.1622 16.316 15.6512 16.201 16.0749 16.0362C16.5142 15.8662 16.8882 15.6361 17.2595 15.2648C17.6309 14.8934 17.861 14.5195 18.031 14.0801C18.1957 13.6539 18.3108 13.1675 18.3422 12.4562C18.3736 11.7422 18.3814 11.5147 18.3814 9.69724C18.3814 7.87975 18.3736 7.65224 18.3422 6.93832C18.3108 6.22702 18.1957 5.738 18.031 5.31435C17.8662 4.86979 17.6387 4.49583 17.2648 4.12449C16.8934 3.75314 16.5195 3.52302 16.0801 3.35304C15.6539 3.18829 15.1675 3.07322 14.4562 3.04184C13.7396 3.00785 13.5121 3 11.6946 3Z" fill="white"/>
<path d="M11.6947 6.2558C9.79615 6.2558 8.25586 7.79608 8.25586 9.69464C8.25586 11.5932 9.79615 13.1335 11.6947 13.1335C13.5933 13.1335 15.1335 11.5932 15.1335 9.69464C15.1335 7.79608 13.5933 6.2558 11.6947 6.2558ZM11.6947 11.9253C10.463 11.9253 9.46403 10.9263 9.46403 9.69464C9.46403 8.46293 10.463 7.46397 11.6947 7.46397C12.9264 7.46397 13.9254 8.46293 13.9254 9.69464C13.9254 10.9263 12.9264 11.9253 11.6947 11.9253Z" fill="white"/>
<path d="M16.0725 6.11979C16.0725 6.56435 15.7116 6.92262 15.2696 6.92262C14.8251 6.92262 14.4668 6.56174 14.4668 6.11979C14.4668 5.67522 14.8277 5.31696 15.2696 5.31696C15.7116 5.31696 16.0725 5.67784 16.0725 6.11979Z" fill="white"/>
</g>
<defs>
<clipPath id="clip0_53_205">
<rect width="13.3892" height="13.3892" fill="white" transform="translate(5 3)"/>
</clipPath>
</defs>
</svg>
